<svg xmlns="http://www.w3.org/2000/svg" width="1359" height="1519" fill="none"><path fill="#008599" d="m679.355 352.258 394.195 234.839 285.16-176.129L696.129 0 16.774 410.968 0 1107.1l310.323 201.29v-134.2l-192.904-117.42V486.452l578.71-352.258 494.841 293.548-58.71 41.936-436.131-251.613-503.226 293.548v494.837l117.42 83.87V587.097l369.032-234.839Z"/><path fill="#008599" d="M369.023 981.288 679.346 1165.8l427.744-259.996 243.22 142.576v58.71l-670.964 410.97-310.323-184.51v-134.2l310.323 184.52 511.614-310.32-67.1-41.94-444.514 260-310.323-167.74V981.288Z"/></svg>