<svg xmlns="http://www.w3.org/2000/svg" width="444" height="500" fill="none"><path stroke="#008599" stroke-width="28.367" d="m89.656 190.264.65 49.711.386 29.535M90.586 295.468v110.804M67.563 278.192 11 246.128M302.93 397.076v39.886M356.828 174.95v82.179M426.959 251.369l-49.943 25.96"/><path stroke="#008599" stroke-width="28.367" d="M429.803 132.057 226.891 15.252a7.985 7.985 0 0 0-7.858-.062L18.892 126.25a7.986 7.986 0 0 0-4.11 6.982v231.626a7.986 7.986 0 0 0 4.152 7.005L222.98 483.467m206.823-351.41L227.18 241.116a7.984 7.984 0 0 0-4.2 7.031v235.32m206.823-351.41v232.817a7.983 7.983 0 0 1-4.134 6.994L222.98 483.467"/><path stroke="#008599" stroke-width="28.367" d="m201.844 105.226-40.518 23.897-52.904 31.198M306.691 128.345l24.155-12.152 31.54-15.865"/><path fill="#008599" d="M252.376 97.501c0 16.379-13.278 29.657-29.657 29.657-16.379 0-29.657-13.278-29.657-29.657 0-16.379 13.278-29.656 29.657-29.656 16.379 0 29.657 13.278 29.657 29.656Zm-40.728 0c0 6.115 4.957 11.071 11.071 11.071s11.071-4.956 11.071-11.07c0-6.115-4.957-11.072-11.071-11.072s-11.071 4.957-11.071 11.071Z"/><path fill="#008599" d="M252.376 97.501c0 16.379-13.278 29.657-29.657 29.657-16.379 0-29.657-13.278-29.657-29.657 0-16.379 13.278-29.656 29.657-29.656 16.379 0 29.657 13.278 29.657 29.656Zm-40.728 0c0 6.115 4.957 11.071 11.071 11.071s11.071-4.956 11.071-11.07c0-6.115-4.957-11.072-11.071-11.072s-11.071 4.957-11.071 11.071ZM256.498 142.641c-1.968-16.26 9.618-31.037 25.879-33.005 16.26-1.968 31.037 9.618 33.005 25.878 1.968 16.261-9.618 31.037-25.879 33.006-16.26 1.968-31.037-9.619-33.005-25.879Zm40.433-4.894c-.735-6.07-6.251-10.395-12.321-9.66-6.07.735-10.395 6.251-9.661 12.321.735 6.07 6.251 10.395 12.321 9.66 6.07-.734 10.395-6.251 9.661-12.321ZM136.334 360.976c-1.968-16.26 9.618-31.037 25.878-33.005 16.261-1.968 31.038 9.618 33.006 25.878 1.968 16.26-9.618 31.037-25.879 33.006-16.26 1.968-31.037-9.619-33.005-25.879Zm40.433-4.894c-.735-6.07-6.251-10.395-12.321-9.66-6.07.735-10.395 6.251-9.661 12.321.735 6.07 6.251 10.395 12.321 9.66 6.07-.734 10.395-6.251 9.661-12.321ZM120.212 175.204c0 16.379-13.278 29.656-29.657 29.656-16.379 0-29.657-13.277-29.657-29.656 0-16.379 13.278-29.657 29.657-29.657 16.379 0 29.657 13.278 29.657 29.657Zm-40.728 0c0 6.114 4.957 11.07 11.071 11.07s11.071-4.956 11.071-11.07c0-6.115-4.957-11.071-11.07-11.071-6.115 0-11.072 4.956-11.072 11.071ZM119.313 283.865c0 16.379-13.277 29.656-29.656 29.656-16.38 0-29.657-13.277-29.657-29.656 0-16.379 13.278-29.657 29.657-29.657 16.379 0 29.656 13.278 29.656 29.657Zm-40.727 0c0 6.114 4.956 11.071 11.07 11.071 6.115 0 11.072-4.957 11.072-11.071 0-6.115-4.957-11.071-11.071-11.071-6.115 0-11.071 4.956-11.071 11.071ZM386.829 283.692c0 16.379-13.278 29.657-29.657 29.657-16.379 0-29.656-13.278-29.656-29.657 0-16.379 13.277-29.657 29.656-29.657 16.379 0 29.657 13.278 29.657 29.657Zm-40.728 0c0 6.114 4.957 11.071 11.071 11.071 6.115 0 11.071-4.957 11.071-11.071s-4.956-11.071-11.071-11.071c-6.114 0-11.071 4.957-11.071 11.071ZM332.157 372.578c0 16.379-13.278 29.656-29.657 29.656-16.378 0-29.656-13.277-29.656-29.656 0-16.379 13.278-29.657 29.656-29.657 16.379 0 29.657 13.278 29.657 29.657Zm-40.727 0c0 6.114 4.956 11.07 11.07 11.07 6.115 0 11.071-4.956 11.071-11.07 0-6.115-4.956-11.071-11.071-11.071-6.114 0-11.07 4.956-11.07 11.071Z"/><circle cx="283.41" cy="263.235" r="12.98" fill="#008599"/><circle cx="214.816" cy="177.291" r="12.98" fill="#008599"/><circle cx="49.723" cy="339.581" r="9.981" fill="#008599"/><path stroke="#008599" stroke-width="28.366" d="M165.906 377.707v69.268M20.18 133.172l59.886 35.333M224.185 247.353l-114.982-60.884"/></svg>